<?xml version="1.0" encoding="utf-8"?>
<!-- Generator: Adobe Illustrator 15.1.0, SVG Export Plug-In . SVG Version: 6.00 Build 0)  -->
<!DOCTYPE svg PUBLIC "-//W3C//DTD SVG 1.1//EN" "http://www.w3.org/Graphics/SVG/1.1/DTD/svg11.dtd">
<svg version="1.1" id="Layer_1" xmlns="http://www.w3.org/2000/svg" xmlns:xlink="http://www.w3.org/1999/xlink" x="0px" y="0px"
	 width="1024px" height="1024px" viewBox="0 0 1024 1024" enable-background="new 0 0 1024 1024" xml:space="preserve">
<g id="_x31_024">
	<g>
		<defs>
			<rect id="SVGID_1_" width="1024" height="1024"/>
		</defs>
		<clipPath id="SVGID_2_">
			<use xlink:href="#SVGID_1_"  overflow="visible"/>
		</clipPath>
		<rect id="white_background" clip-path="url(#SVGID_2_)" fill="#FFFFFF" width="1024" height="1024"/>
	</g>
	<g>
		<defs>
			<rect id="SVGID_3_" width="1024" height="1024"/>
		</defs>
		<clipPath id="SVGID_4_">
			<use xlink:href="#SVGID_3_"  overflow="visible"/>
		</clipPath>
		<rect id="redstripe" x="474" y="512" clip-path="url(#SVGID_4_)" fill="#BF0A30" width="550" height="512"/>
	</g>
	<g>
		<defs>
			<rect id="SVGID_5_" width="1024" height="1024"/>
		</defs>
		<clipPath id="SVGID_6_">
			<use xlink:href="#SVGID_5_"  overflow="visible"/>
		</clipPath>
		<rect id="bluestripe" clip-path="url(#SVGID_6_)" fill="#002868" width="474" height="1024"/>
	</g>
	<g>
		<defs>
			<rect id="SVGID_7_" width="1024" height="1024"/>
		</defs>
		<clipPath id="SVGID_8_">
			<use xlink:href="#SVGID_7_"  overflow="visible"/>
		</clipPath>
		<polygon id="Star" clip-path="url(#SVGID_8_)" fill="#FFFFFF" points="285.516,539.391 398,454 258.965,454 216,314.738 
			173.035,454 34,454 146.482,539.391 103.516,678.311 216,592.078 328.482,678.396 		"/>
	</g>
	<g>
		<defs>
			<rect id="SVGID_9_" width="1024" height="1024"/>
		</defs>
		<clipPath id="SVGID_10_">
			<use xlink:href="#SVGID_9_"  overflow="visible"/>
		</clipPath>
		<g clip-path="url(#SVGID_10_)">
			<path fill="none" d="M633.1,604.763c0.461-0.969,3.935-5.979,0-6.235C634.609,601.45,628.396,603.729,633.1,604.763z"/>
			<path fill="none" d="M563.975,880.74c-8.049,0.844-16.231,1.555-20.426,6.235C551.668,886.197,558.023,883.66,563.975,880.74z"/>
			<path fill="none" d="M604.826,838.638c-18.918,0.98-35.871,3.904-48.709,10.916C571.703,845.271,591.994,845.657,604.826,838.638
				z"/>
			<path fill="none" d="M640.965,657.775c2.941-6.363,9.16-13.252,3.139-20.271c-1.504,5.266-5.76,7.799-9.432,10.914
				C638.803,649.521,636.182,657.326,640.965,657.775z"/>
			<path fill="none" d="M752,687.989c-4,0-8,0-12,0c0,4,0,6,0,8c4,0,8,0,12,0C752,693.989,752,691.989,752,687.989z"/>
			<path fill="none" d="M765.084,402.066c-21.934-7.854-65.4-4.416-67.562,15.596C710.354,403.564,742.1,400.963,765.084,402.066z"
				/>
			<path fill="none" d="M815.357,692.079c-3.67-0.457-6.482-3.06-9.433,0c-0.188,4.416,3.861,4.479,7.859,4.674
				C813.721,694.612,814.508,693.31,815.357,692.079z"/>
			<path fill="none" d="M786,696.753c0-2.6,0-4.764,0-8.764c-4,0-8,0-12,0c0,4,0,5.131,0,7.205C776,697.337,782,696.753,786,696.753
				z"/>
			<path fill="none" d="M846.777,698.317c-2.287,0.842-8.117-1.822-7.855,1.559C841.217,699.026,847.041,701.69,846.777,698.317z"/>
			<path fill="none" d="M821.641,777.836c-9.297-2.994-2.551,22.408-3.145,6.234C818.496,780.951,822.754,782.055,821.641,777.836z"
				/>
			<path fill="none" d="M846.777,797.811c10.407-1.489,6.42-17.821,6.284-21.821c-1.571,0-3.139,0-4.713,0
				C848.479,783.988,845.666,788.918,846.777,797.811z"/>
			<path fill="none" d="M689.666,871.384c7.66-1.362,7.262,5.266,12.568,6.235c0.262-3.896-2.486-4.811-3.146-7.798
				C696.475,870.021,684.885,868.979,689.666,871.384z"/>
			<path fill="none" d="M606.398,838.638c14.594-1.102,28.608-2.789,40.844-6.233C635.008,829.872,617.004,834.421,606.398,838.638z
				"/>
			<path fill="none" d="M805.926,540.838c-0.188-2.596,5.109-9.943-1.563-9.361C805.273,534.205,802.463,540.639,805.926,540.838z"
				/>
			<path fill="none" d="M746.225,406.748c-0.127,5.063-0.787,9.613-3.139,12.475c-0.852-6.825-11.264-5.457-12.57,0
				c0.461-3.58-0.395-5.85-3.145-6.244c1.311,14.104-17.805-0.387-15.713,15.594c8.58-2.663,22.067-7.858,33-3.112
				c-0.66,10.327,0.85,21.438,0,31.183c-0.726,8.576-1.771,20.199-7.857,23.384c-0.199-13.316-1.311-39.23-1.572-53.013
				c-9.358,4.16-3.205,21.965-4.713,34.306c-0.522,4.155-2.946,11.957-1.571,17.147c-3.732,2.019-8.511,2.994-9.423,7.803
				c20.615,2.399,45.164,0.908,59.695,9.352c-12.17-9.224-6.738-35.927-7.852-56.134c-5.369-1.168-2.031,6.369-7.855,4.684
				c-0.135-7.412-0.785-15.336,4.711-17.156c1.965,2.207,5.437,2.931,9.433,3.121c11.123-8.382-2.621-27.154-11.002-24.943
				c2.03,0,2.03,4.352,0,4.676C763.51,405.189,753.756,407.072,746.225,406.748z M766.65,412.979
				c7.729-0.581,10.866,5.142,7.854,10.919C770.25,421.887,765.602,420.262,766.65,412.979z M752,444.169
				c0,10.391,0,20.781,0,31.182c0,4.943-1.838-2.791-1.312-4.678c-3.797-14.812-0.913-33.199,3.015-45.214
				C770.129,422.139,760,444.04,752,444.169z M761.938,422.338c-3.797-4.029-8.508-7.145-10.995-12.473
				C760.889,406.814,767.109,415.58,761.938,422.338z"/>
			<path fill="none" d="M703.807,427.993c-1.239,4,7.531,4,6.283,0C707.994,427.993,705.902,427.993,703.807,427.993z"/>
			<path fill="none" d="M739.939,322.546c4.059-8.184-0.652-16.494,1.571-24.945c-2.032-0.062-2.159-2.012-4.711-1.561
				C728.42,300.784,732.543,319.565,739.939,322.546z"/>
			<path fill="none" d="M739.939,285.129c3.541-3.959-0.851-9.48-6.275-9.354C733.266,281.359,733.266,286.562,739.939,285.129z"/>
			<path fill="none" d="M721.086,434.817c-0.064-0.979-0.26-1.828-1.564-1.562c-8.645,9.549-3.344,32.027-1.573,45.211
				C728.158,471.651,724.162,446.185,721.086,434.817z"/>
			<path fill="none" d="M706.953,699.989c2.613,0,5.229,0,7.85,0c2.162-2,1.572-6.756,1.572-10.918
				C706.818,686.021,702.299,693.989,706.953,699.989z"/>
			<path fill="none" d="M717.947,511.215c22.715-3.312,53.223-2.279,69.129,6.23c1.699,0.067,3.994-0.711,1.572-1.558
				c-6.42-4.026-8.972-11.889-14.144-17.146C753.031,495.035,725.346,496.012,717.947,511.215z"/>
			<path d="M1000.754,1010.152c-3.998-4.354-10.154-6.56-12.578-12.473c0.396-33.328-0.912-66.851,1.574-90.433
				c-8.898,6.102-4.189,20.397-4.713,31.182c-0.523,12.15-1.508,25.792-1.771,39.044c-0.19,6.953-0.19,13.773,0.197,20.207
				c-0.264,4.029,7.984,7.469,4.711,9.352c-31.684-15.266-75.344-21.895-117.834-26.505c-11.521-1.232-25.137-3.054-36.133-3.115
				c-3.074,0-6.086,2.791-9.43,3.115c-18.718,1.69-60.484-2.597-67.556-12.476c6.478-30.464,7.461-66.394,7.859-102.903
				c-7.992-3.25-23.572-1.886-29.855,1.559c-3.137,13.058,0.392,27.612-4.713,35.858c-4.975-11.367-16.955-33.001-1.571-42.092
				c15.444,0.709,32.993-0.588,48.771-0.2c6.676,0.2,13.029,0.719,18.789,1.76c-6.094-0.33-11.592-0.068-15.715,1.553
				c-0.062,32.227,0.852,67.372,1.572,102.906c2.487,0.59,17.346,2.276,18.854-3.115c4.646-1.363-4.783-1.238-1.572-6.238
				c4.779-2.602,8.117-10.91,9.429-17.146c2.812-12.93,3.6-32.295,4.713-48.34c0.785-11.107,1.635-23.192-3.142-31.18
				c1.83-0.264,4.451,0.259,4.714-1.562c-12.046-0.844-24.947-0.908-37.578-1.168c-12.043-0.195-23.828-0.584-34.693-1.949
				c8.77-10.594,25.596-5.588,40.848-6.24c25.597-1.104,60.945-3.573,81.699,0c8.117,1.039,23.959-1.555,7.855-1.555
				c-43.466,0-90.8-11.565-136.688-9.361c-0.594-5.129-4.646-6.817-7.856-9.35c-27.693-2.146-52.437,4.74-72.271,1.555
				c17.613-6.426,51.457,3.248,61.275-10.913c-5.896-16.438-38.229-2.207-51.847-7.797c9.818,2.988,3.591-10.328,9.804-10.91
				c5.498-1.303,8.096-4.155,16.096-4.678c0-6.758,0-13.512,0-20.27c0-4.424,7.801-2.277,5.902-9.357
				c0.325-5.52-7.586-3.053-6.474-9.352c6.672-4.291,4.418-17.348,14.047-18.71c7.523-1.759,6.56,4.87,14.093,3.116
				c1.891-2.793,0.229-9.098,3.114-10.914c37.904-7.536,77.562-0.979,114.677,1.556c5.768,0.393,12.896-0.844,18.854,0
				c25.463,3.705,46.738,17.737,67.553,17.153c-10.996-2.079-17.084-9.034-31.424-7.795
				c-57.74-23.979-150.701-15.524-219.963-12.475c5.959-9.619,12.639-9.941,26.709-10.914c49.561-3.508,106.053,1.367,150.836,1.557
				c-97.936-11.041-224.021-8.444-304.801,26.507c2.16-1.554,4.385-2.988,6.672-4.416c33.391-20.398,81.305-26.312,128.449-33.005
				c3.004-6.885,6.274-13.512,7.848-21.829c-16.754,0-29.26,4.225-43.988,6.233c-0.916-4.998,2.947-4.801,0-7.789
				c-7.596,0.779-12.178,4.543-22,3.115c3.543-5.323,12.568-5.196,15.715-10.913c-6.02-2.207-11.454,4.094-14.143,0
				c10.672-9.16,26.586-5.912,40.852-9.359c4.783-1.166,9.033-5.452,14.146-6.233c4.971-0.779,9.754,2.082,15.713,1.561
				c6.545-0.582,13.021-5.848,18.846-6.235c3.271-0.197,8.119,2.666,11.003,0c-9.097-0.521-8.843-10.326-14.468-14.296
				c-0.787-0.581-1.771-1.038-2.812-1.293c-6.228-0.914-7.729,10.91-12.568,6.23c-1.572-13.643-0.205-29.489,1.564-43.655
				c3.076-25.143,12.567-42.428,14.141-59.251c-10.018,20.729-17.479,43.985-20.424,71.725c-2.945-3.052-5.76-0.449-9.422,0
				c0.127,17.935-5.244,27.288-15.717,37.427c-6.418-23.199,2.354-47.89,7.852-71.729c-9.883,4.869-9.486,27.744-21.992,24.945
				c5.234-20.266,15.383-35.662,21.992-54.567c-17.479,9.682-26.506,27.743-37.707,43.655c7.859-36.055,36.801-51.191,74.369-57.688
				c16.758-2.927,35.283-4.093,54.469-4.679c-12.438-4.289-37.053,3.511-40.85-9.35c21.41-8.256,56.818-3.84,73.844,6.227
				c-0.92,5.07,1.051,7.285,1.566,10.923c6.547-4.095,5.305,3.963,9.43,6.233c5.695,3.123,13.553,2.92,18.854,6.237
				c1.177,0.779,1.962,3.635,3.146,4.674c10.865,9.162,20.225,18.709,31.42,26.51c3.139,6.818,7.523,12.931,11.654,18.97
				c1.373,2.018,2.748,3.965,4.053,5.977c17.35,26.702,31.428,60.937,37.713,96.668c16.627,2.799,24.023,17.865,20.424,35.865
				c-26.709-6.756-51.521-23.715-83.272-20.271c29.918,0.978,47.658,14.031,73.846,18.711c5.498,2.924,12.242,12.731,18.85,9.354
				c-1.963-0.654-3.206-2.018-3.139-4.682c6.351,5.202,11.125,13.124,10.996,21.829c-0.133,6.883-7.266,13.254-7.857,21.832
				c-0.387,5.263,2.687,10.715,3.148,15.588c0.521,5.457-0.201,11.435,0,17.156c0.127,3.571-2.885,11.755,3.139,14.026
				c-1.639-10.328,2.685-19.229,1.57-29.62c-0.787-7.146-5.301-11.631-4.709-18.709c0.65-7.926,7.92-13.58,7.848-21.832
				c-0.062-12.996-6.147-18.253-17.276-28.062c-0.131-8.45-1.113-16.5-4.713-24.95c-4.781-4.615-15.058-3.771-17.287-10.914
				c-0.326-17.281-7.199-25.79-10.996-38.979c-4.773-16.637-9.623-32.223-17.279-42.102c-4.061-5.26-6.221-10.784-9.432-15.589
				c-11.908-17.863-26.51-31.64-40.851-45.216c-8.51-8.119-18.258-11.699-26.702-18.708c7.063-20.92-16.031-24.625-25.398-34.305
				c3.609-16.045-7.246-18.26-11.246-26.507c0-15.594,0-31.184,0-46.771c6-1.237,8.832-3.973,11.246-7.805
				c1.578-17.669-9.096-23.056-20.289-28.062c1.111-10.98-5.824-14.168-9.619-20.271c-1.115-5.651-1.338-20.926-3.338-20.27
				c0,7.274,0,14.553,0,21.83c-2,3.375-9.432-2.537-10.742,4.676c11.521-1.041,20.228,0.844,20.553,10.92
				c-6.42,0-12.045-0.396-17.217-1.562c-4.582-1.039-11.485-2.991-14.108-6.241c6.737-8.187,17.17-4.023,15.725-18.703
				c-0.522-5.203-7.453,4.668-6.277-3.121c-1.176-5.33,6.425-2.021,4.724-7.797c-0.064-4.739-4.717-13.901,1.567-15.589
				c6.283,0,3.013,9.479,6.285,12.473c2.422-10.658-3.139-15.402-4.711-20.277c-2.358-7.397-0.264-15.004-1.572-23.385
				c-1.178-7.34-4.903-14.16-4.713-21.825c0.199-9.939,4.322-19.621-4.711-23.391c-12.049,1.885-8.256,14.814-9.43,23.391
				c-1.305,9.937-7.658,20.202-4.711,31.184c0.135,4.03,6.744,1.625,4.711,7.799c-3.732,15.004-8.705,28.775-6.285,49.892
				c-4.447,7.017-12.106,10.851-12.567,21.824c-9.16,4.422-16.953,10.203-18.853,21.832c1.373,6.433,7.723,7.921,10.996,12.479
				c3.734,20.98,5.633,53.006-6.277,67.038c-2.557,5.134,0.318,5.978,0,12.476c-6.942,4.028-16.438,5.526-22.006,10.92
				c-0.778,8.567,1.119,14.481,4.717,18.701c-60.092,29.234-102.055,76.467-106.838,160.601
				c-7.721,5.322-17.215,8.902-21.989,17.148c-0.787,7.018,0.778,11.692,1.573,17.155c-10.026,3.572-14.864,12.276-20.434,20.264
				c-0.979,12.93,0.268,23.651,6.291,29.631c-0.724,24.944,5.824,46.316-7.859,56.126c-3.797,2.729-8.643,2.986-11.002,4.678
				c-2.748,1.953-5.752,7.535-9.422,10.92c-8.381,7.662-14.537,11.43-15.713,21.821c-2.162,19.301,6.742,16.504,10.996,31.188
				c1.379,4.681,1.313,12.537,1.569,17.15c1.382,22.738,0,46.644,3.146,73.281c11.648-6.108,31.746-12.147,45.562-10.915
				c-27.891,8.381-68.014,12.281-62.85,48.337c3.344,1.947,7.793,2.664,12.639,2.664c9.037,0,19.507-2.539,26.642-4.226
				c1.771-17.473,16.563-22.021,37.711-20.271c6.022-3.896,8.445-11.369,14.135-15.59c34.367-2.923,72.93-9.292,113.131-10.915
				c5.426-4.094,13.547-6.883,20.418-7.793c39.148-5.131,98.918,4.676,128.836-1.56c54.197,4.611,107.556,9.353,146.111,32.741
				c3.535,4.291,1.182,14.422,6.283,17.148c4.195-2.404,4.91-8.316,4.91-14.877
				C1000.943,1015.869,1000.816,1013.006,1000.754,1010.152z M804.361,531.477c6.674-0.582,1.375,6.767,1.563,9.361
				C802.463,540.639,805.273,534.205,804.361,531.477z M733.664,275.775c5.426-0.127,9.816,5.395,6.275,9.354
				C733.266,286.562,733.266,281.359,733.664,275.775z M736.801,296.04c2.551-0.451,2.678,1.498,4.711,1.561
				c-2.225,8.451,2.486,16.762-1.571,24.945C732.543,319.565,728.42,300.784,736.801,296.04z M703.807,427.993
				c2.097,0,4.188,0,6.283,0C711.338,431.993,702.566,431.993,703.807,427.993z M788.648,515.889
				c2.422,0.847,0.127,1.625-1.572,1.558c-15.906-8.511-46.414-9.543-69.129-6.23c7.397-15.203,35.084-16.18,56.559-12.473
				C779.678,504,782.229,511.861,788.648,515.889z M719.521,433.255c1.305-0.266,1.5,0.584,1.563,1.562
				c3.076,11.366,7.072,36.834-3.139,43.647C716.178,465.282,710.877,442.804,719.521,433.255z M766.65,409.865
				c2.03-0.324,2.03-4.676,0-4.676c8.381-2.212,22.125,16.562,11.002,24.943c-3.996-0.19-7.467-0.914-9.433-3.121
				c-5.496,1.82-4.846,9.744-4.711,17.156c5.824,1.686,2.486-5.852,7.855-4.684c1.112,20.207-4.318,46.909,7.852,56.134
				c-14.531-8.442-39.08-6.951-59.694-9.352c0.911-4.809,5.688-5.784,9.422-7.803c-1.375-5.19,1.049-12.992,1.571-17.147
				c1.509-12.341-4.646-30.146,4.714-34.306c0.262,13.781,1.372,39.695,1.571,53.013c6.086-3.185,7.133-14.808,7.857-23.384
				c0.85-9.746-0.66-20.854,0-31.183c-10.933-4.746-24.42,0.449-33,3.112c-2.092-15.979,17.022-1.488,15.713-15.594
				c2.75,0.396,3.604,2.664,3.145,6.244c1.308-5.457,11.72-6.826,12.57,0c2.353-2.86,3.012-7.41,3.139-12.475
				C753.756,407.072,763.51,405.189,766.65,409.865z M697.521,417.662c2.161-20.012,45.629-23.449,67.562-15.596
				C742.1,400.963,710.354,403.564,697.521,417.662z M644.104,637.504c6.021,7.021-0.196,13.908-3.139,20.271
				c-4.783-0.449-2.162-8.254-6.293-9.357C638.344,645.303,642.6,642.77,644.104,637.504z M633.1,598.526
				c3.935,0.258,0.461,5.268,0,6.235C628.396,603.729,634.609,601.45,633.1,598.526z M543.549,886.977
				c4.193-4.682,12.377-5.393,20.426-6.235C558.023,883.66,551.668,886.197,543.549,886.977z M556.117,849.554
				c12.838-7.012,29.791-9.936,48.709-10.916C591.994,845.657,571.703,845.271,556.117,849.554z M606.398,838.638
				c10.604-4.217,28.608-8.766,40.844-6.233C635.008,835.849,620.992,837.536,606.398,838.638z M689.666,871.384
				c-4.781-2.403,6.809-1.362,9.422-1.562c0.66,2.987,3.408,3.902,3.146,7.798C696.928,876.648,697.326,870.021,689.666,871.384z"/>
			<path d="M931.617,838.638c-19.377-4.35-41.438-3.83-62.842-6.233c-16.824-1.883-33.39-8.702-47.136-3.115
				c23.375,4.541,60.42,3.441,95.836,9.35c16.104,2.729,29.332,8.904,43.998,15.597c13.285,6.039,33.384,14.295,34.56,26.507
				c0.787,8.25-9.096,13.514-7.857,21.824c3.734-1.293,6.549-6.623,7.857-9.351c8.709-18.521-6.674-28.847-18.854-35.866
				c-10.278-5.912-12.764-5.455-23.563-9.35C945.887,845.2,939.342,840.396,931.617,838.638z"/>
			<path d="M988.176,879.18c-3.397-1.883-9.686-8.964-12.567-6.237C979.994,873.852,982.877,884.311,988.176,879.18z"/>
			<path d="M980.326,897.889c-11.455-13.897-32.404-15.334-51.849-20.27c-10.866-2.793-21.672-11.692-32.991-6.235
				c15.444,2.341,27.95,7.6,42.418,10.911c-4.125-0.451-4.062,3.248-4.713,6.236c-2.226,16.112-1.699,30.473-1.574,46.776
				c0.063,11.502-2.619,25.143,3.146,34.305c1.898-17.346,3.601-34.889,4.713-53.016c15.906,0,1.438-24.424,9.425-32.741
				c9.627,6.047,24.463,6.889,29.832,17.153c-1.771,2.4-4.732,3.25-4.732,7.793c0,24.953,0,49.897,0,74.845
				c4-0.782,3.748-3.383,3.748-6.301c0-2.799-0.644-5.85-0.58-7.733c0.664-18.387-1.893-40.021,0.006-56.13
				C977.898,907.178,982.289,902.699,980.326,897.889z"/>
			<path d="M969.324,868.269C960.227,863.78,965.199,872.099,969.324,868.269L969.324,868.269z"/>
			<path d="M964.611,891.652c-4.773,1.104-5.693-1.625-9.431-1.56c-2.745,13.316-0.715,34.564-1.565,53.013
				c-0.721,14.75-6.354,31.574,3.139,40.541c0-17.67-0.715-36.056,3.148-49.892c4.645,11.369,3.86,36.054,1.571,53.005
				c4.576-3.375,4.187-7.858,4.709-12.473c1.574-13.9-1.11-36.897,0-54.567C967.035,906.398,969.262,898.275,964.611,891.652z"/>
			<path d="M933.844,858.454c-0.979-0.711-11.52-4.545-3.799-1.105C932.533,858.13,933.65,858.454,933.844,858.454z"/>
			<path d="M931.617,763.803c-0.984-0.457-6.021-3.901-6.281,0C928.281,762.305,930.57,768.477,931.617,763.803z"/>
			<path d="M923.762,774.715c-7.985,4.092-6.221,32.545-1.565,38.98c0.717-11.758-2.099-27.029,3.141-34.306
				c1.373,11.763-2.026,27.025,0,34.306C926.383,801.158,932.797,779.975,923.762,774.715z"/>
			<path d="M923.762,936.871c-1.897,6.496,1.185,17.541,0,28.064C926.383,959.151,926.383,942.65,923.762,936.871z"/>
			<path d="M926,925.957c0-5.715,0-11.438,0-17.154c0-1.231-1.645-1.815-3.473-1.555c-1.119,4.738,1.803,5.646,1.731,9.35
				C923.936,919.848,924,934.467,926,925.957z"/>
			<path d="M923.762,971.173C919.512,979.097,929.26,976.952,923.762,971.173L923.762,971.173z"/>
			<path d="M924,901.01c0-6.756,0-13.512,0-20.27c-6-2.404-13.143-3.705-20.545-4.683c-1.566,27.744-6.732,64.384-0.061,90.434
				c6.745-16.69,5.262-41.639,11.094-59.243C916.646,904.189,924,906.27,924,901.01z"/>
			<path d="M903.336,754.443c5.633-0.388,5.766,4.676,11.004,4.676C915.451,753.799,906.482,750.415,903.336,754.443z"/>
			<path d="M911.193,851.112c-0.455,5.455-5.822-3.896-6.285,1.561C905.758,855.599,917.15,854.296,911.193,851.112z"/>
			<path d="M901.77,771.594c-0.784,9.556-8.903,29.105-1.571,34.303c6.221,0.457,0.459-10.975,4.711-12.473
				c2.686,4.154-1.312,14.814,4.713,15.594c-0.715-13.315,1.635-29.688-1.566-40.541c-2.032-0.062-2.161-2.01-4.719-1.559
				C903.271,768.936,901.309,769.061,901.77,771.594z"/>
			<path d="M892.34,707.667c0.652,4.029,4.91,4.486,7.857,6.238C901.309,708.124,897.711,707.021,892.34,707.667z"/>
			<path d="M898.625,849.554C888.543,847.737,895.152,854.296,898.625,849.554L898.625,849.554z"/>
			<path d="M890.766,826.167c-2.024-0.062-2.157-2.012-4.709-1.561C883.633,828.438,891.428,829.218,890.766,826.167z"/>
			<path d="M876.627,748.208c4.98,0.781,6.547,4.935,12.574,4.675C889.855,747.491,879.512,744.96,876.627,748.208z"/>
			<path d="M893.914,868.269c-16.367-7.213-45.762-6.825-65.988-7.795c-0.065,0-6.873-3.188-6.873-1.366
				c0,0.323,0.191,0.778,0.588,1.366c4.849,0.779,9.949,1.3,15.252,1.621c15.845,1.041,32.535,1.23,42.88,7.728
				c-3.732-1.166-10.865-3.052-14.14,0c-1.313,34.888-3.076,67.31-1.573,101.352c3.471,2.271,7.594,3.896,14.139,3.115
				c0.328-5-6.871-2.531-6.281-7.797c8.246-26.112,11.193-57.493,20.424-82.637c-0.651-4.676-3.924-9.61-3.399-12.666
				C889.201,869.562,890.576,868.528,893.914,868.269z"/>
			<path d="M881.344,805.896c-4.908-5.068-4.319-21.312,1.574-24.945c0.912,5.651-4.654,12.803,0,17.021
				c4.385-9.151,4.123-25.983,0-35.983c-1.574,0-3.146,0-4.721,0c-0.783,2-1.699,3.633-3.138,4.805
				C878.135,776.668,864.393,804.926,881.344,805.896z"/>
			<path d="M879.771,640.627c0.198,3.959,0.913,7.404,3.146,9.35C882.918,645.822,883.768,640.816,879.771,640.627z"/>
			<path d="M867.203,701.433c6.412,1.433,8.906,6.757,14.141,9.355C884.553,700.784,873.027,697.274,867.203,701.433z"/>
			<path d="M863.994,612.235c-0.459,0-0.979,0.127-1.502,0.323c4.313,2.988,4.973,14.555,7.85,18.842
				c0.857,1.168,1.836,1.815,3.146,1.43C869.627,628.02,869.627,612.235,863.994,612.235z"/>
			<path d="M862,634.65c0,4.021,0.77,7.664,4.957,7.537c-0.588-3.187,1.053-8.712-0.844-10.658c-0.72-0.648-2.113-0.914-4.113-0.263
				C862,632.373,862,633.545,862,634.65z"/>
			<path d="M846.777,743.532c6.022,0.844,10.733,2.854,14.143,6.235C862.881,742.036,851.035,739.89,846.777,743.532z"/>
			<path d="M860.92,654.662c0.457-2.146-0.984-6.111-1.574-3.123C858.887,653.684,860.33,657.643,860.92,654.662z"/>
			<path d="M854.635,801.988c2.099-14,6.547-34.49,0-45.603c-2.947,0.322-3.471-1.565-6.285-1.369
				c-6.942,9.88-4.256,36.972-6.282,46.972C846.252,801.988,850.441,801.988,854.635,801.988z M853.062,775.988
				c0.135,4,4.122,20.332-6.285,21.821c-1.111-8.893,1.701-13.821,1.571-21.821C849.924,775.988,851.49,775.988,853.062,775.988z"/>
			<path d="M854.635,868.269c-5.434-1.625-11.065-2.987-17.805-3.317c-2.754-0.127-5.695-0.064-8.904,0.197
				c0.064,2.145-0.723,3.442-1.572,4.674c-3.534,8.515-0.979,15.593-1.573,29.628c-1.238,30.143-11.322,75.493,8.444,72.827
				c1.248-0.133,2.621-0.521,4.123-1.104c-1.961-15.721,14.213-27.673,17.287-42.101
				C858.625,910.166,851.75,891.717,854.635,868.269z"/>
			<path d="M851.49,824.606c1.444-7.145-3.338-8.12-9.424-7.79C842.59,822.012,851.035,819.346,851.49,824.606z"/>
			<path d="M842.918,626.201c-2.422,4.807,0.324,12.408,5.432,12.863c0.201-0.521,0.201-2.019,0-3.83
				c-0.395-3.834-1.698-9.101-4.711-10.203C843.377,625.428,843.115,625.74,842.918,626.201z"/>
			<path d="M854.426,698.317c-4.322-2.603-14.426-5.072-20.426-1.564c0,1.564,0,3.123,0,4.68
				C842,703.771,851.805,706.112,854.426,698.317z M838.922,699.876c-0.262-3.381,5.568-0.717,7.855-1.559
				C847.041,701.69,841.217,699.026,838.922,699.876z"/>
			<path d="M838.922,648.418c-1.375,5.914,0.85,7.797,1.574,4.68C840.754,651.996,839.971,644,838.922,648.418z"/>
			<path d="M833.488,619.837c1.51,0,3.604-3.707-0.853-4.154c-0.264,1.429-0.264,2.396-0.127,3.05
				C832.699,619.515,833.035,619.837,833.488,619.837z"/>
			<path d="M846.777,600.085c-4.775-8.766-8.312-18.779-15.713-24.943C836.307,583.452,839.055,594.235,846.777,600.085z"/>
			<path d="M829.5,743.532c-0.137-5.652-13.357-9.357-15.715-3.123C821.705,737.815,828.449,744.438,829.5,743.532z"/>
			<path d="M827.926,632.83c1.5-5.654-7.069-1.301-6.285-6.236c-0.983-2.539,1.699-5.787,1.699-7.665
				c0-1.039-0.783-1.692-3.271-1.692c-3.211,1.819-3.535,5.982-3.011,10.265c0.324,3.051,1.048,6.172,1.438,8.443
				C821.705,634.975,829.426,638.482,827.926,632.83z"/>
			<path d="M823.213,562.667C825.043,572.216,830.801,566.562,823.213,562.667L823.213,562.667z"/>
			<path d="M824.779,796.545c1.771-14.166,0.725-29.43-1.566-43.662c-3.799,0.652-3.408-2.854-7.854-1.555
				c-4.781,11.891-4.648,28.646-4.714,45.217C817.256,796.35,819.414,799.4,824.779,796.545z M821.641,777.836
				c1.113,4.219-3.145,3.115-3.145,6.234C819.09,800.244,812.344,774.842,821.641,777.836z"/>
			<path d="M821.641,660.891c-0.264,1.82-2.485,1.691-4.711,1.562c-0.332-1.752-1.771-2.396-3.145-3.115
				C810.445,666.221,828.055,664.92,821.641,660.891z"/>
			<path d="M818.496,581.378c-0.129-3.967-0.912-7.406-3.139-9.359C815.748,574.878,816.93,584.823,818.496,581.378z"/>
			<path d="M816.535,688.958c-4.91,0.324-10.535-1.043-14.535,1.561c0,2.08,0,4.156,0,6.234c4,1.24,6.346,3.25,11.193,3.123
				C815.287,697.274,817.578,694.675,816.535,688.958z M805.926,692.079c2.949-3.06,5.763-0.457,9.433,0
				c-0.851,1.229-1.638,2.533-1.572,4.674C809.787,696.558,805.736,696.495,805.926,692.079z"/>
			<path d="M801.217,827.726c2.883-0.062,24.547,0.324,10.994-1.559c-34.693-4.739-68.41,2.207-94.264,0
				C748.195,828.634,783.738,828.312,801.217,827.726z"/>
			<path d="M815.357,651.539c-1.572-6.891-1.113-15.848-2.099-23.322c-0.588-4.416-1.764-8.38-4.188-10.98
				c-0.062,2.469,0.129,4.609,0.457,6.628c0.655,4.229,1.967,7.862,2.682,12.08C810.709,640.234,809.922,649.787,815.357,651.539z"
				/>
			<path d="M812.211,815.256c-6.412,1.625-12.83-4.811-17.281,0c2.814,3.439,14.404-1.822,10.996,7.797
				C810.838,823.244,811.297,819.021,812.211,815.256z"/>
			<path d="M801.217,631.268c-0.328-2.926,1.764-3.444,1.572-6.235c-9.432,2.469-2.361-9.618-7.859-12.473
				c-1.571,1.688-2.483,4.938-2.483,8.312C792.445,626.201,794.93,631.789,801.217,631.268z"/>
			<path d="M768.221,737.294c6.484-0.518,19.181,2.99,26.709,6.238c1.115-4.744-1.635-5.652-1.571-9.357
				C785.764,735.995,770.709,730.405,768.221,737.294z"/>
			<path d="M796.504,575.142c-0.197-6.562-6.283-15.532-9.428-14.034C790.674,565.331,790.674,573.124,796.504,575.142z"/>
			<path d="M790.221,773.154c1.828-14.486-3.408-32.61-15.715-23.387c-0.588,15.524-2.422,29.819-1.572,46.776
				c5.371-0.457,12.769,1.232,15.716-1.561c0.521-3.642-0.265-5.978-1.572-7.798c-2.291-4.153-3.535,5.718-9.424,3.121
				c-2.558-5.006-0.724-8.45,0-14.032C783.801,777.182,786.748,774.91,790.221,773.154z"/>
			<path d="M780.789,657.775c2.361,1.819,6.611,5.457,7.859,0C784.912,659.074,777.127,654.268,780.789,657.775z"/>
			<path d="M787.076,699.989c1.768-4,2.031-7.404,3.145-10.976c-4.123-2.146-18.924-3.803-18.854,3.15
				c-0.26,3.895,2.487,3.824,3.141,7.824C778.693,699.989,782.887,699.989,787.076,699.989z M774,687.989c4,0,8,0,12,0
				c0,4,0,6.164,0,8.764c-4,0-10,0.584-12-1.559C774,693.12,774,691.989,774,687.989z"/>
			<path d="M783.934,635.943c0.195,2.602-0.848,14.098,1.566,9.358C785.311,642.707,786.359,631.205,783.934,635.943z"/>
			<path d="M782.361,618.796c-0.062,0.26-0.062,0.586-0.062,0.908c0,2.142,1.113,4.808,1.635,2.206
				c0.066-0.254,0.066-0.584,0.066-0.906C784,618.858,782.887,616.202,782.361,618.796z"/>
			<path d="M777.652,586.054c0-1.041,0-2.084,0-3.121c-1.047,0-2.099,0-3.146,0c0,1.037,0,2.08,0,3.121
				C775.555,586.054,776.605,586.054,777.652,586.054z"/>
			<path d="M774.506,626.594c0.984-2.209,1.438-4.615,1.438-7.017c0-2.404-0.453-4.812-1.438-7.019
				c-7.197-2.334-9.621,2.603-9.621,7.926c0,2.797,0.717,5.778,1.767,7.668C771.105,629.447,770.709,625.945,774.506,626.594z"/>
			<path d="M774.506,423.896c3.012-5.777-0.127-11.5-7.854-10.919C765.602,420.262,770.25,421.887,774.506,423.896z"/>
			<path d="M763.51,545.512c3.211,8.256,3.4,19.489,10.996,23.387C771.955,560.003,770.771,549.736,763.51,545.512z"/>
			<path d="M765.084,821.492c2.615-16.824-30.578-8.318-40.852-6.236C739.549,816.684,759.91,807.846,765.084,821.492z"/>
			<path d="M750.941,409.865c2.487,5.328,7.198,8.442,10.995,12.473C767.109,415.58,760.889,406.814,750.941,409.865z"/>
			<path d="M758.791,662.451c0.725-3.959-8.18-6.236-9.422-3.115C753.818,659.074,752.445,664.596,758.791,662.451z"/>
			<path d="M753.828,425.459c-3.928,12.015-7.064,30.401-3.269,45.214c-0.524,1.887,1.439,9.621,1.439,4.678
				c0-10.399,0-20.791,0-31.182C760,444.04,770.256,422.139,753.828,425.459z"/>
			<path d="M754.082,699.989c-0.326-6,2.748-6.631,1.572-12.479c-10.082-5.062-25.072,0.479-18.854,12.479
				C742.562,699.989,748.32,699.989,754.082,699.989z M740,687.989c4,0,8,0,12,0c0,4,0,6,0,8c-4,0-8,0-12,0
				C740,693.989,740,691.989,740,687.989z"/>
			<path d="M732.092,734.175c-1.248,1.104-3.473,8.705,0,9.357c-1.772-10.588,13.027-4.744,20.416-6.238
				c0.135,2.471-0.19,5.396,3.146,4.68C757.092,730.146,741.449,735.278,732.092,734.175z"/>
			<path d="M755.654,645.303c-1.049,0-2.099,0-3.146,0c0,1.041,0,2.072,0,3.115c1.049,0,2.099,0,3.146,0
				C755.654,647.375,755.654,646.344,755.654,645.303z"/>
			<path d="M752.508,773.154c5.769-9.81,1.119-28.13-9.422-24.946c-2.289,15.263-7.201,34.108-1.574,48.337
				c4.974,0.779,5.57-2.797,10.996-1.561c-0.262-8.576-12.299-5.455-9.422-17.148C744.523,774.586,747.732,773.09,752.508,773.154z"
				/>
			<path d="M755.654,674.924c-11.062,0.978-26.646-2.533-32.994,3.121C733.727,674.404,748.91,679.867,755.654,674.924z"/>
			<path d="M750.941,578.253c0.264-1.104-0.525-9.09-1.572-4.674C747.994,579.493,750.221,581.378,750.941,578.253z"/>
			<path d="M744.658,545.512c0.254,2.342-0.588,5.787,1.565,6.244C745.508,548.762,751.07,545.057,744.658,545.512z"/>
			<path d="M741.512,609.438c-2.812,2.411-5.627,6.11-6.283,10.465c-0.327,2.593,0,5.39,1.572,8.251
				c4.976,0.774,6.154-2.207,9.424-3.121c0-1.623,0.07-3.312,0.136-4.935C746.422,614.896,745.961,610.155,741.512,609.438z"/>
			<path d="M722.66,565.78c-2.295,14.485-2.027,41.127-1.701,49.381c-1.309-14.426-0.984-6.174-0.199,1.231
				c0.525,4.68,1.24,8.991,1.9,7.034c0.525-1.688,0.912-3.438,1.113-5.437h0.067c1.767-14-4.319-37.117,1.957-50.691
				C725.479,566.062,724.494,565.521,722.66,565.78z"/>
			<path d="M721.475,638.025c-0.125,0.125-0.252,0.457-0.389,1.039c-0.326,1.625,0.389,4.227,0.984,4.227
				c0.262,0,0.455-0.33,0.59-1.104C723.049,640.43,722.137,637.504,721.475,638.025z"/>
			<path d="M699.088,688.958c1.445,10.918,6.547,15.918,18.859,12.475c1.574-4.157,3.211-8.25,3.139-14.034
				C712.451,686.554,706.295,688.312,699.088,688.958z M714.803,699.989c-2.619,0-5.235,0-7.85,0c-4.654-6-0.135-13.97,9.422-10.918
				C716.375,693.233,716.965,697.989,714.803,699.989z"/>
			<path d="M710.09,678.045c3.273-0.906,10.344,1.949,10.996-1.559C717.814,677.393,710.75,674.537,710.09,678.045z"/>
			<path d="M710.09,612.56c-1.182,3.959-4.188,15.782,1.568,17.155c3.797-2.666,7.139-5.914,6.354-13.062
				c0-0.322,0-0.652-0.063-0.97C714.93,615.026,715.137,611.196,710.09,612.56z"/>
			<path d="M717.947,774.715c-0.523-11.955,2.227-27.21-6.289-31.236c-13.611,6.883-12.365,36.511-9.424,54.511
				c2.621,0,5.239,0,7.854,0c1.568-6-4.772-10.66-1.572-21.769C712.252,776.285,713.168,773.611,717.947,774.715z"/>
			<path d="M673.951,681.16c4.457-0.26,10.807,1.365,11.002-3.115C679.975,677.785,675.461,677.982,673.951,681.16z"/>
			<path d="M678.672,572.019c0.588-7.206,6.801-8.829,7.848-15.596C681.021,557.794,674.809,566.562,678.672,572.019z"/>
			<path d="M673.951,579.815c0-3.115,4.258-2.013,3.145-6.236C673.107,571.954,670.152,578.847,673.951,579.815z"/>
			<path d="M647.242,687.396c6.227-1.104,12.703-1.946,17.285-4.677C659.945,680.057,647.51,680.773,647.242,687.396z"/>
		</g>
	</g>
	<g>
		<defs>
			<rect id="SVGID_11_" width="1024" height="1024"/>
		</defs>
		<clipPath id="SVGID_12_">
			<use xlink:href="#SVGID_11_"  overflow="visible"/>
		</clipPath>
		<g clip-path="url(#SVGID_12_)">
			<text transform="matrix(1.0157 0 0 1 480.998 295.9707)" fill="#C31B3E" font-family="'GiddyupStd'" font-size="343.9948">Lege</text>
			
				<text transform="matrix(1.0157 0 0 1 480.998 295.9707)" fill="none" stroke="#000000" stroke-width="4" font-family="'GiddyupStd'" font-size="343.9948">Lege</text>
		</g>
	</g>
	<g>
		<defs>
			<rect id="SVGID_13_" width="1024" height="1024"/>
		</defs>
		<clipPath id="SVGID_14_">
			<use xlink:href="#SVGID_13_"  overflow="visible"/>
		</clipPath>
		<g clip-path="url(#SVGID_14_)">
			<text transform="matrix(0.8675 0 0 1 34.5801 293.6289)" fill="#FFFFFF" font-family="'CapitalsRegular'" font-size="274.2168">Tex</text>
		</g>
	</g>
</g>
</svg>
